<svg width="500" height="500" viewBox="0 0 500 500" fill="none" xmlns="http://www.w3.org/2000/svg">
<rect width="500" height="500" fill="#1C1B1F"/>
<circle cx="249" cy="248" r="146" fill="#31F4A2"/>
<path d="M351.95 286.838C357.393 281.395 366.687 283.885 368.68 291.321L389.85 370.328C391.842 377.764 385.038 384.568 377.602 382.575L298.595 361.406C291.16 359.413 288.669 350.119 294.112 344.675L351.95 286.838Z" fill="#31F4A2"/>
<rect x="167" y="195" width="40" height="80" rx="20" fill="#1C1B1F"/>
<rect width="14.5712" height="31.8648" rx="7.28559" transform="matrix(-0.719856 -0.694123 -0.694123 0.719856 304.607 275.114)" fill="#1C1B1F"/>
<rect width="9.00828" height="19.6997" rx="4.50414" transform="matrix(-0.719856 -0.694123 -0.694123 0.719856 309.159 290.253)" fill="#1C1B1F"/>
<rect x="242" y="195" width="40" height="80" rx="20" fill="#1C1B1F"/>
</svg>
